HIERARCHY
ROOT Hips
{
	OFFSET 0.000000 0.000000 0.000000
	CHANNELS 6 Xposition Yposition Zposition Zrotation Yrotation Xrotation 
	JOINT LHipJoint
	{
		OFFSET 0.000000 0.000000 0.000000
		CHANNELS 3 Zrotation Yrotation Xrotation
		JOINT LeftUpLeg
		{
			OFFSET 1.363060 -1.794630 0.839290
			CHANNELS 3 Zrotation Yrotation Xrotation
			JOINT LeftLeg
			{
				OFFSET 2.448110 -6.726130 0.000000
				CHANNELS 3 Zrotation Yrotation Xrotation
				JOINT LeftFoot
				{
					OFFSET 2.562200 -7.039590 0.000000
					CHANNELS 3 Zrotation Yrotation Xrotation
					JOINT LeftToeBase
					{
						OFFSET 0.157640 -0.433110 2.322550
						CHANNELS 3 Zrotation Yrotation Xrotation
						End Site
						{
							OFFSET 0.000000 0.000000 0.000000
						}
					}
				}
			}
		}
	}
	JOINT RHipJoint
	{
		OFFSET 0.000000 0.000000 0.000000
		CHANNELS 3 Zrotation Yrotation Xrotation
		JOINT RightUpLeg
		{
			OFFSET -1.305520 -1.794630 0.839290
			CHANNELS 3 Zrotation Yrotation Xrotation
			JOINT RightLeg
			{
				OFFSET -2.542530 -6.985550 0.000000
				CHANNELS 3 Zrotation Yrotation Xrotation
				JOINT RightFoot
				{
					OFFSET -2.568260 -7.056230 0.000000
					CHANNELS 3 Zrotation Yrotation Xrotation
					JOINT RightToeBase
					{
						OFFSET -0.164730 -0.452590 2.363150
						CHANNELS 3 Zrotation Yrotation Xrotation
						End Site
						{
							OFFSET 0.000000 0.000000 0.000000
						}
					}
				}
			}
		}
	}
	JOINT LowerBack
	{
		OFFSET 0.000000 0.000000 0.000000
		CHANNELS 3 Zrotation Yrotation Xrotation
		JOINT Spine
		{
			OFFSET 0.028270 2.035590 -0.193380
			CHANNELS 3 Zrotation Yrotation Xrotation
			JOINT Spine1
			{
				OFFSET 0.056720 2.048850 -0.042750
				CHANNELS 3 Zrotation Yrotation Xrotation
				JOINT Neck
				{
					OFFSET 0.000000 0.000000 0.000000
					CHANNELS 3 Zrotation Yrotation Xrotation
					JOINT Neck1
					{
						OFFSET -0.054170 1.746240 0.172020
						CHANNELS 3 Zrotation Yrotation Xrotation
						JOINT Head
						{
							OFFSET 0.104070 1.761360 -0.123970
							CHANNELS 3 Zrotation Yrotation Xrotation
							End Site
							{
								OFFSET 0.000000 0.000000 0.000000
							}
						}
					}
				}
				JOINT LeftShoulder
				{
					OFFSET 0.000000 0.000000 0.000000
					CHANNELS 3 Zrotation Yrotation Xrotation
					JOINT LeftArm
					{
						OFFSET 3.362410 1.200890 -0.311210
						CHANNELS 3 Zrotation Yrotation Xrotation
						JOINT LeftForeArm
						{
							OFFSET 4.983000 -0.000000 -0.000000
							CHANNELS 3 Zrotation Yrotation Xrotation
							JOINT LeftHand
							{
								OFFSET 3.483560 -0.000000 -0.000000
								CHANNELS 3 Zrotation Yrotation Xrotation
								JOINT LeftFingerBase
								{
									OFFSET 0.000000 0.000000 0.000000
									CHANNELS 3 Zrotation Yrotation Xrotation
									JOINT LeftHandIndex1
									{
										OFFSET 0.715260 -0.000000 -0.000000
										CHANNELS 3 Zrotation Yrotation Xrotation
										End Site
										{
											OFFSET 0.000000 0.000000 0.000000
										}
									}
								}
								JOINT LThumb
								{
									OFFSET 0.000000 0.000000 0.000000
									CHANNELS 3 Zrotation Yrotation Xrotation
									End Site
									{
										OFFSET 0.000000 0.000000 0.000000
									}
								}
							}
						}
					}
				}
				JOINT RightShoulder
				{
					OFFSET 0.000000 0.000000 0.000000
					CHANNELS 3 Zrotation Yrotation Xrotation
					JOINT RightArm
					{
						OFFSET -3.136600 1.374050 -0.404650
						CHANNELS 3 Zrotation Yrotation Xrotation
						JOINT RightForeArm
						{
							OFFSET -5.241900 -0.000000 -0.000000
							CHANNELS 3 Zrotation Yrotation Xrotation
							JOINT RightHand
							{
								OFFSET -3.444170 -0.000000 -0.000000
								CHANNELS 3 Zrotation Yrotation Xrotation
								JOINT RightFingerBase
								{
									OFFSET 0.000000 0.000000 0.000000
									CHANNELS 3 Zrotation Yrotation Xrotation
									JOINT RightHandIndex1
									{
										OFFSET -0.622530 -0.000000 -0.000000
										CHANNELS 3 Zrotation Yrotation Xrotation
										End Site
										{
											OFFSET 0.000000 0.000000 0.000000
										}
									}
								}
								JOINT RThumb
								{
									OFFSET 0.000000 0.000000 0.000000
									CHANNELS 3 Zrotation Yrotation Xrotation
									End Site
									{
										OFFSET 0.000000 0.000000 0.000000
									}
								}
							}
						}
					}
				}
			}
		}
	}
}
MOTION
Frames: 5
Frame Time: 0.008333
10.905029 18.455472 7.873907 0.566234 9.773926 2.974984 -8.155107 6.396374 11.705389 -5.756608 -6.550654 5.001769 -0.638735 7.270518 23.169129 0.869174 9.660429 35.658333 1.452522 -7.617992 -21.559603 6.437427 -0.108664 -2.675078 7.719105 11.337649 -28.309118 -0.440858 -11.124639 27.315342 5.894066 -18.588474 11.962798 -0.127414 2.297437 -6.328507 0.818584 -4.885324 2.355360 1.817834 -5.841016 -3.825097 3.253975 -3.790665 -1.186688 -5.875094 2.691868 -12.943641 1.292208 4.323096 2.845994 -0.585009 1.910482 3.246458 -3.263015 -2.936384 0.212225 -77.691794 2.472927 36.191684 70.121632 -56.675585 -46.554455 -0.669430 -0.991789 -30.535243 25.511896 9.505202 4.958419 -7.125000 0.000000 0.000000 -0.366246 41.112350 0.034572 7.723409 1.425474 -1.676681 76.383289 -26.559591 3.761590 0.644052 7.581142 -0.052866 2.076564 -1.420997 10.133123 -27.818414 16.002118 -9.519977 7.125000 0.000000 0.000000 -1.484060 -10.734923 -1.182045
10.895378 18.442693 8.011259 0.300427 9.413230 2.719879 -8.096619 6.373945 11.587671 -5.584582 -6.086366 4.691585 -0.262433 7.716524 24.395726 0.882263 10.052936 36.538061 1.419917 -7.534408 -21.309121 6.471059 -0.171914 -2.559825 8.270231 11.471067 -28.012140 -0.519898 -11.213680 27.879563 5.731509 -18.087714 11.590190 -0.109746 2.127953 -5.859659 1.074992 -4.804142 2.546304 1.837233 -5.710680 -3.794176 3.218706 -3.713261 -1.150404 -5.821611 2.727591 -13.122358 1.198492 4.394167 2.914100 -0.633155 1.935508 3.343946 -3.253477 -2.922435 0.193636 -77.847683 2.819795 36.083997 69.665775 -56.615414 -46.147681 -0.674283 -0.984945 -30.370930 25.481293 9.425021 4.910434 -7.125000 0.000000 0.000000 -0.386633 41.014990 0.037972 7.750237 1.451109 -1.640257 76.320263 -26.116193 3.408463 0.702761 7.443605 -0.050061 2.080084 -1.433384 10.281179 -27.956972 15.933286 -9.541164 7.125000 0.000000 0.000000 -1.588003 -10.779809 -1.263494
10.888265 18.429162 8.147162 -0.092168 9.079038 2.391255 -8.006681 6.380337 11.459918 -5.322942 -5.694066 4.432113 0.168122 8.197450 25.685641 0.830134 10.637989 37.287658 1.361662 -7.384413 -20.859968 6.513451 -0.260286 -2.415134 8.967406 11.581487 -27.620106 -0.593511 -11.289635 28.456350 5.566469 -17.557764 11.120106 -0.089577 1.920388 -5.286066 1.493891 -4.740430 2.792166 1.872647 -5.588301 -3.756200 3.171792 -3.635902 -1.129785 -5.838284 2.753439 -13.254051 1.117676 4.456668 2.944712 -0.655625 1.957880 3.405677 -3.243851 -2.907444 0.176757 -78.061335 3.177543 35.947094 69.204986 -56.552383 -45.735961 -0.672377 -0.981606 -30.193820 25.263237 9.449899 4.875824 -7.125000 0.000000 0.000000 -0.586854 41.023116 0.057554 7.780415 1.479525 -1.595712 76.197366 -25.633330 3.061412 0.772388 7.291406 -0.045858 2.089496 -1.450476 10.449793 -28.181135 15.884766 -9.608574 7.125000 0.000000 0.000000 -1.750139 -10.784215 -1.392390
10.881291 18.418871 8.283834 -0.460686 8.765357 2.103094 -7.918982 6.370072 11.312189 -5.070175 -5.274190 4.106471 0.629727 8.687950 27.022484 0.791823 11.228094 38.048565 1.314866 -7.262542 -20.495702 6.553013 -0.342225 -2.275235 9.633700 11.699629 -27.234951 -0.672134 -11.362381 29.004064 5.431380 -17.115189 10.697617 -0.084644 1.871585 -5.151136 1.887077 -4.686244 2.989683 1.906583 -5.482948 -3.719103 3.121103 -3.565875 -1.089387 -5.833959 2.786073 -13.347335 1.047885 4.516184 2.936160 -0.680378 1.980401 3.431431 -3.233288 -2.890282 0.162261 -78.287223 3.573544 35.776434 68.781342 -56.498436 -45.362411 -0.668208 -0.982450 -29.988994 25.002362 9.581010 4.883913 -7.125000 0.000000 0.000000 -0.836198 41.149289 0.077946 7.810635 1.502706 -1.549732 76.068962 -25.129727 2.731847 0.827502 7.164711 -0.044520 2.093445 -1.458365 10.624521 -28.304572 15.745508 -9.582178 7.125000 0.000000 0.000000 -1.853507 -10.916761 -1.469538
10.874499 18.412774 8.421501 -0.798045 8.478220 1.867297 -7.834181 6.338252 11.138606 -4.828890 -4.818626 3.695197 1.131514 9.190842 28.420058 0.771395 11.824737 38.824109 1.282899 -7.177069 -20.241288 6.588912 -0.415841 -2.141539 10.260029 11.827765 -26.858698 -0.757238 -11.430976 29.514154 5.335054 -16.785687 10.336722 -0.099428 2.028237 -5.583889 2.246988 -4.644386 3.124638 1.938606 -5.399627 -3.683145 3.065531 -3.505337 -1.023394 -5.802459 2.827490 -13.390913 0.992361 4.571838 2.876924 -0.708086 2.003116 3.410626 -3.221511 -2.870309 0.150850 -78.528949 4.019051 35.562090 68.405771 -56.456244 -45.038258 -0.661110 -0.988707 -29.748299 24.686073 9.849598 4.947259 -7.125000 0.000000 0.000000 -1.149112 41.428229 0.099388 7.840910 1.519115 -1.501891 75.933434 -24.599283 2.424909 0.863837 7.071023 -0.046891 2.090325 -1.454344 10.807160 -28.297658 15.488827 -9.434386 7.125000 0.000000 0.000000 -1.880823 -11.215135 -1.479721
